<svg width="20" height="21" viewBox="0 0 20 21" fill="none" xmlns="http://www.w3.org/2000/svg">
<path d="M10 0.0581055C4.5 0.0581055 0 4.55811 0 10.0581C0 15.5581 4.5 20.0581 10 20.0581C15.5 20.0581 20 15.5581 20 10.0581C20 4.55811 15.5 0.0581055 10 0.0581055ZM14.2 8.35811L9.4 13.1581C9 13.5581 8.4 13.5581 8 13.1581L5.8 10.9581C5.4 10.5581 5.4 9.95811 5.8 9.55811C6.2 9.15811 6.8 9.15811 7.2 9.55811L8.7 11.0581L12.8 6.95811C13.2 6.5581 13.8 6.5581 14.2 6.95811C14.6 7.35811 14.6 7.95811 14.2 8.35811Z" fill="#00005B"/>
</svg>
