<svg width="16" height="17" viewBox="0 0 16 17" fill="none" xmlns="http://www.w3.org/2000/svg">
<path d="M9.40994 8.48996L15.7099 2.19996C15.8982 2.01166 16.004 1.75626 16.004 1.48996C16.004 1.22366 15.8982 0.968266 15.7099 0.779962C15.5216 0.591658 15.2662 0.48587 14.9999 0.48587C14.7336 0.48587 14.4782 0.591658 14.2899 0.779962L7.99994 7.07996L1.70994 0.779962C1.52164 0.591658 1.26624 0.485871 0.999939 0.485871C0.733637 0.485871 0.478243 0.591658 0.289939 0.779962C0.101635 0.968266 -0.00415253 1.22366 -0.00415254 1.48996C-0.00415254 1.75626 0.101635 2.01166 0.289939 2.19996L6.58994 8.48996L0.289939 14.78C0.196211 14.8729 0.121816 14.9835 0.0710478 15.1054C0.0202791 15.2272 -0.00585938 15.358 -0.00585938 15.49C-0.00585938 15.622 0.0202791 15.7527 0.0710478 15.8745C0.121816 15.9964 0.196211 16.107 0.289939 16.2C0.382902 16.2937 0.493503 16.3681 0.615362 16.4189C0.737221 16.4696 0.867927 16.4958 0.999939 16.4958C1.13195 16.4958 1.26266 16.4696 1.38452 16.4189C1.50638 16.3681 1.61698 16.2937 1.70994 16.2L7.99994 9.89996L14.2899 16.2C14.3829 16.2937 14.4935 16.3681 14.6154 16.4189C14.7372 16.4696 14.8679 16.4958 14.9999 16.4958C15.132 16.4958 15.2627 16.4696 15.3845 16.4189C15.5064 16.3681 15.617 16.2937 15.7099 16.2C15.8037 16.107 15.8781 15.9964 15.9288 15.8745C15.9796 15.7527 16.0057 15.622 16.0057 15.49C16.0057 15.358 15.9796 15.2272 15.9288 15.1054C15.8781 14.9835 15.8037 14.8729 15.7099 14.78L9.40994 8.48996Z" fill="black"/>
</svg>
