<svg width="11" height="8" viewBox="0 0 11 8" fill="none" xmlns="http://www.w3.org/2000/svg">
<path d="M10.5 1.22829C10.3126 1.04204 10.0592 0.9375 9.79501 0.9375C9.53082 0.9375 9.27737 1.04204 9.09001 1.22829L5.50001 4.76829L1.96001 1.22829C1.77265 1.04204 1.5192 0.9375 1.25501 0.9375C0.990824 0.9375 0.737372 1.04204 0.55001 1.22829C0.456281 1.32126 0.381887 1.43186 0.331118 1.55372C0.280349 1.67557 0.254211 1.80628 0.254211 1.93829C0.254211 2.0703 0.280349 2.20101 0.331118 2.32287C0.381887 2.44473 0.456281 2.55533 0.55001 2.64829L4.79001 6.88829C4.88297 6.98202 4.99357 7.05641 5.11543 7.10718C5.23729 7.15795 5.368 7.18409 5.50001 7.18409C5.63202 7.18409 5.76273 7.15795 5.88459 7.10718C6.00645 7.05641 6.11705 6.98202 6.21001 6.88829L10.5 2.64829C10.5937 2.55533 10.6681 2.44473 10.7189 2.32287C10.7697 2.20101 10.7958 2.0703 10.7958 1.93829C10.7958 1.80628 10.7697 1.67557 10.7189 1.55372C10.6681 1.43186 10.5937 1.32126 10.5 1.22829Z" fill="black"/>
</svg>
