<svg width="277" height="103" viewBox="0 0 277 103" fill="none" xmlns="http://www.w3.org/2000/svg">
<path d="M88.7506 0.0581055H64.969L94.8269 51.5291L82.944 71.7062L41.4494 0.0581055H29.5842L0 51.5291L29.5842 103H53.1117L23.301 51.5291L34.9574 31.0939L76.6707 103H88.7506L118.333 51.5291L88.7506 0.0581055Z" fill="#00005B"/>
<path d="M173.468 32.2959V64.5333H167.771L154.206 44.243H153.98V64.5333H147.371V32.2959H153.155L166.626 52.5718H166.901V32.2959H173.468Z" fill="#00005B"/>
<path d="M189.583 64.5293C187.442 64.5869 185.325 64.0545 183.457 62.9883C181.749 61.9734 180.366 60.4785 179.474 58.6833C178.552 56.668 178.074 54.4718 178.074 52.2488C178.074 50.0257 178.552 47.8295 179.474 45.8142C180.366 44.019 181.749 42.5241 183.457 41.5092C185.347 40.4993 187.45 39.9717 189.585 39.9717C191.72 39.9717 193.823 40.4993 195.714 41.5092C197.42 42.5183 198.804 44.007 199.7 45.7966C200.622 47.8119 201.1 50.008 201.1 52.2311C201.1 54.4541 200.622 56.6503 199.7 58.6656C198.809 60.4607 197.427 61.9557 195.721 62.9706C193.851 64.0442 191.73 64.5828 189.583 64.5293ZM189.622 59.4043C190.355 59.4341 191.082 59.2595 191.724 58.8994C192.367 58.5394 192.9 58.0075 193.267 57.3614C194.094 55.9971 194.508 54.2781 194.508 52.2046C194.508 50.131 194.094 48.4097 193.267 47.0407C192.902 46.3923 192.369 45.8581 191.726 45.4961C191.084 45.1341 190.356 44.9581 189.622 44.9872C188.879 44.9547 188.143 45.1287 187.49 45.4906C186.838 45.8524 186.295 46.3884 185.921 47.0407C185.089 48.4097 184.673 50.131 184.673 52.2046C184.673 54.2781 185.089 55.9971 185.921 57.3614C186.297 58.0115 186.84 58.5451 187.493 58.905C188.145 59.2649 188.881 59.4375 189.622 59.4043Z" fill="#00005B"/>
<path d="M227.197 39.9717L218.708 64.5335H211.128L202.635 39.9717H209.753L214.806 57.5471H215.059L220.09 39.9717H227.197Z" fill="#00005B"/>
<path d="M239.896 64.529C237.82 64.5881 235.765 64.0728 233.935 63.0341C232.28 62.0568 230.939 60.5803 230.083 58.7934C229.193 56.764 228.732 54.5541 228.732 52.3174C228.732 50.0807 229.193 47.8708 230.083 45.8414C230.932 44.0475 232.25 42.5488 233.881 41.5229C235.632 40.4591 237.626 39.9236 239.645 39.9751C241.511 39.9405 243.357 40.392 245.018 41.2897C246.634 42.2018 247.957 43.6002 248.82 45.3078C249.756 47.0983 250.224 49.3365 250.224 52.0223V53.8317H234.901V53.8494C234.901 55.6234 235.36 57.0217 236.278 58.0442C237.197 59.0667 238.438 59.5791 240.003 59.5814C240.95 59.6055 241.887 59.3615 242.715 58.8746C243.47 58.4188 244.043 57.6877 244.326 56.8179L250.097 57.2208C249.687 59.3843 248.485 61.2892 246.753 62.5217C244.966 63.8599 242.68 64.529 239.896 64.529ZM234.901 49.7747H244.35C244.365 49.1302 244.259 48.4889 244.037 47.8882C243.816 47.2875 243.483 46.7395 243.059 46.2761C242.628 45.8167 242.111 45.457 241.541 45.2197C240.971 44.9825 240.361 44.8729 239.749 44.8979C239.119 44.8729 238.49 44.9856 237.903 45.2288C237.316 45.472 236.782 45.8406 236.335 46.3114C235.46 47.2271 234.948 48.4601 234.901 49.7606V49.7747Z" fill="#00005B"/>
<path d="M260.412 39.9717L264.811 48.5605L269.321 39.9717H276.143L269.196 52.2544L276.321 64.5335H269.542L264.811 56.0433L260.162 64.5335H253.294L260.419 52.2544L253.551 39.9717H260.412Z" fill="#00005B"/>
</svg>
