<svg version="1.2" xmlns="http://www.w3.org/2000/svg" viewBox="0 0 180 67" width="180" height="67">
	<title>logo-svg</title>
	<style>
		.s0 { fill: #00005b } 
	</style>
	<path id="Layer" class="s0" d="m57.8 0h-15.5l19.5 33.5-7.8 13.2-27-46.7h-7.7l-19.3 33.5 19.3 33.6h15.3l-19.4-33.6 7.6-13.3 27.1 46.9h7.9l19.3-33.6z"/>
	<path id="Layer" class="s0" d="m113 21v21h-3.7l-8.8-13.2h-0.2v13.2h-4.3v-21h3.8l8.7 13.2h0.2v-13.2z"/>
	<path id="Layer" fill-rule="evenodd" class="s0" d="m123.5 42c-1.4 0-2.8-0.3-4-1-1.1-0.7-2-1.6-2.6-2.8-0.6-1.3-0.9-2.8-0.9-4.2 0-1.5 0.3-2.9 0.9-4.2 0.6-1.2 1.5-2.1 2.6-2.8 1.2-0.7 2.6-1 4-1 1.4 0 2.8 0.3 4 1 1.1 0.7 2 1.6 2.6 2.8 0.6 1.3 0.9 2.7 0.9 4.2 0 1.4-0.3 2.9-0.9 4.2-0.6 1.1-1.5 2.1-2.6 2.8-1.2 0.7-2.6 1-4 1zm0-3.3q0.8 0 1.4-0.4 0.6-0.3 1-1 0.8-1.3 0.8-3.3 0-2.1-0.8-3.4-0.4-0.6-1-1-0.6-0.4-1.4-0.3-0.7-0.1-1.4 0.3-0.6 0.4-1 1-0.8 1.3-0.8 3.4 0 2 0.8 3.3 0.4 0.7 1 1 0.7 0.4 1.4 0.4z"/>
	<path id="Layer" class="s0" d="m148 26l-5.5 16h-5l-5.5-16h4.6l3.3 11.4h0.2l3.3-11.4z"/>
	<path id="Layer" fill-rule="evenodd" class="s0" d="m156.3 42c-1.4 0-2.7-0.3-3.9-1-1.1-0.6-2-1.6-2.5-2.7-0.6-1.4-0.9-2.8-0.9-4.3 0-1.4 0.3-2.9 0.9-4.2 0.5-1.1 1.4-2.1 2.5-2.8 1.1-0.7 2.4-1 3.7-1 1.2 0 2.4 0.3 3.5 0.9 1.1 0.6 1.9 1.5 2.5 2.6q0.9 1.7 0.9 4.4v1.1h-10q0 1.8 0.9 2.8 0.9 1 2.4 1c0.7 0 1.3-0.2 1.8-0.5 0.5-0.3 0.9-0.8 1.1-1.3l3.7 0.2c-0.3 1.4-1 2.7-2.2 3.5q-1.7 1.3-4.4 1.3zm-3.3-9.6h6.2q0-0.7-0.2-1.2-0.3-0.6-0.7-1.1-0.4-0.4-1-0.7-0.5-0.2-1.1-0.2-0.6 0-1.2 0.2-0.6 0.3-1 0.7c-0.6 0.6-1 1.4-1 2.3z"/>
	<path id="Layer" class="s0" d="m169.6 26l2.9 5.6 2.9-5.6h4.5l-4.5 8 4.6 8h-4.4l-3.1-5.5-3 5.5h-4.5l4.6-8-4.4-8z"/>
</svg>