<svg width="16" height="17" viewBox="0 0 16 17" fill="none" xmlns="http://www.w3.org/2000/svg">
<path d="M15 7.55811H9V1.55811C9 1.29289 8.89464 1.03854 8.70711 0.850999C8.51957 0.663463 8.26522 0.558105 8 0.558105C7.73478 0.558105 7.48043 0.663463 7.29289 0.850999C7.10536 1.03854 7 1.29289 7 1.55811V7.55811H1C0.734784 7.55811 0.48043 7.66346 0.292893 7.851C0.105357 8.03854 0 8.29289 0 8.55811C0 8.82332 0.105357 9.07768 0.292893 9.26521C0.48043 9.45275 0.734784 9.55811 1 9.55811H7V15.5581C7 15.8233 7.10536 16.0777 7.29289 16.2652C7.48043 16.4527 7.73478 16.5581 8 16.5581C8.26522 16.5581 8.51957 16.4527 8.70711 16.2652C8.89464 16.0777 9 15.8233 9 15.5581V9.55811H15C15.2652 9.55811 15.5196 9.45275 15.7071 9.26521C15.8946 9.07768 16 8.82332 16 8.55811C16 8.29289 15.8946 8.03854 15.7071 7.851C15.5196 7.66346 15.2652 7.55811 15 7.55811Z" fill="black"/>
</svg>
